<?xml version="1.0" encoding="utf-8"?>
<!-- Generator: Adobe Illustrator 16.0.0, SVG Export Plug-In . SVG Version: 6.00 Build 0)  -->
<!DOCTYPE svg PUBLIC "-//W3C//DTD SVG 1.1//EN" "http://www.w3.org/Graphics/SVG/1.1/DTD/svg11.dtd">
<svg version="1.1" id="图层_1" xmlns="http://www.w3.org/2000/svg" xmlns:xlink="http://www.w3.org/1999/xlink" x="0px" y="0px"
	 width="570px" height="110px" viewBox="0 0 570 110" enable-background="new 0 0 570 110" xml:space="preserve">
<rect x="11.59" y="10.03" fill="#AAABAB" width="73.765" height="18.44"/>
<rect x="11.59" y="46.911" fill="#AAABAB" width="73.765" height="18.44"/>
<rect x="11.59" y="83.793" fill="#7A62A9" width="27.662" height="18.44"/>
<g>
	<defs>
		<rect id="SVGID_1_" x="91.119" y="37.677" width="469.101" height="64.55"/>
	</defs>
	<clipPath id="SVGID_2_">
		<use xlink:href="#SVGID_1_"  overflow="visible"/>
	</clipPath>
	<g clip-path="url(#SVGID_2_)">
		<defs>
			<rect id="SVGID_3_" x="91.119" y="37.677" width="469.101" height="64.55"/>
		</defs>
		<clipPath id="SVGID_4_">
			<use xlink:href="#SVGID_3_"  overflow="visible"/>
		</clipPath>
		<path clip-path="url(#SVGID_4_)" fill="#AAABAB" d="M560.22,77.906v24.15h-8.25v-24.15c0-5.16-1.301-8.82-3.91-10.98
			c-2.209-1.75-5.73-2.629-10.551-2.629h-5.609v37.76h-8.17l-0.08-37.76h-19.91v37.76h-8.34V55.956h42.109
			C552.649,55.956,560.22,63.276,560.22,77.906"/>
		<path clip-path="url(#SVGID_4_)" fill="#AAABAB" d="M482.06,62.666c4.489,4.49,6.73,9.94,6.73,16.37c0,6.37-2.241,11.8-6.73,16.29
			c-4.49,4.49-9.949,6.73-16.37,6.73c-6.32,0-11.731-2.24-16.221-6.73s-6.729-9.92-6.729-16.29c0-6.43,2.24-11.88,6.729-16.37
			s9.9-6.74,16.221-6.74C472.11,55.926,477.569,58.176,482.06,62.666 M476.729,89.846c2.979-2.979,4.47-6.609,4.47-10.89
			s-1.521-7.96-4.55-11.05c-3.03-2.97-6.681-4.46-10.96-4.46c-4.181,0-7.812,1.521-10.891,4.54c-3.03,3.029-4.54,6.689-4.54,10.97
			s1.51,7.94,4.54,10.96c3.079,2.98,6.71,4.471,10.891,4.471C469.969,94.387,473.649,92.866,476.729,89.846"/>
		<path clip-path="url(#SVGID_4_)" fill="#AAABAB" d="M440.429,93.807v8.25h-21.26c-5.671,0-10.55-1.9-14.63-5.7
			c-4.649-4.25-6.979-10.01-6.979-17.27c0-7.31,2.329-13.12,6.979-17.44c4.08-3.79,8.959-5.69,14.63-5.69h21.26v8.331h-21.181
			c-3.569,0-6.579,1.17-9.009,3.49c-2.899,2.719-4.34,6.489-4.34,11.31c0,4.819,1.44,8.569,4.34,11.229
			c2.43,2.33,5.439,3.49,9.009,3.49H440.429z"/>
		<rect x="385.05" y="93.007" clip-path="url(#SVGID_4_)" fill="#AAABAB" width="9.211" height="9.22"/>
		<path clip-path="url(#SVGID_4_)" fill="#AAABAB" d="M379.269,79.486v4.01h-34.27c0.49,3.931,1.932,6.711,4.341,8.34
			c2.399,1.641,6.079,2.461,11.04,2.461h18v7.93h-18c-15.711,0-23.562-7.471-23.562-22.41c0-6.22,1.612-11.51,4.83-15.87
			c3.981-5.29,9.761-7.94,17.341-7.94c7.301,0,12.76,2.98,16.361,8.921C377.97,69.177,379.269,74.037,379.269,79.486
			 M345.079,75.477h25.852c-1.312-7.689-5.291-11.53-11.941-11.53C351.189,63.946,346.55,67.787,345.079,75.477"/>
		<path clip-path="url(#SVGID_4_)" fill="#AAABAB" d="M323.539,61.826c4.65,4.311,6.972,10.12,6.972,17.43
			c0,7.261-2.321,13.021-6.972,17.271c-4.081,3.8-8.929,5.7-14.55,5.7h-23.391v-64.55h8.341v18.451h15.05
			C314.61,56.127,319.458,58.026,323.539,61.826 M322.09,79.256c0-4.81-1.421-8.59-4.25-11.31c-2.5-2.319-5.471-3.489-8.931-3.489
			h-14.97v29.52h14.97c3.46,0,6.431-1.16,8.931-3.49C320.669,87.826,322.09,84.086,322.09,79.256"/>
		<path clip-path="url(#SVGID_4_)" fill="#AAABAB" d="M277.989,56.127v46.1h-19.9c-15.54,0-23.31-7.4-23.31-22.2V56.127h8.34v23.899
			c0,5.61,1.5,9.5,4.51,11.649c2.21,1.541,5.7,2.301,10.46,2.301h11.74v-37.85H277.989z"/>
		<path clip-path="url(#SVGID_4_)" fill="#7A62A9" d="M228.169,56.127v8.33H212.1v20.199c0,3.46,0.42,5.87,1.28,7.23
			c0.9,1.31,2.6,1.96,5.1,1.96h9.61v8.34h-9.61c-9.76,0-14.63-5.84-14.63-17.53V64.457h-11.74v-8.33h11.74v-18.44h8.25v18.44
			H228.169z"/>
		<path clip-path="url(#SVGID_4_)" fill="#AAABAB" d="M185.429,93.977v8.25h-21.27c-5.67,0-10.55-1.9-14.63-5.7
			c-4.65-4.25-6.97-10.01-6.97-17.271c0-7.31,2.32-13.119,6.97-17.43c4.08-3.8,8.96-5.699,14.63-5.699h21.27v8.33h-21.18
			c-3.58,0-6.58,1.17-9.02,3.489c-2.89,2.72-4.34,6.5-4.34,11.31c0,4.83,1.45,8.57,4.34,11.23c2.44,2.33,5.44,3.49,9.02,3.49
			H185.429z"/>
		<path clip-path="url(#SVGID_4_)" fill="#AAABAB" d="M135.949,75.856v26.37h-29.35c-3.4,0-6.52-0.93-9.36-2.811
			c-4.08-2.549-6.12-6.43-6.12-11.649s2.04-9.13,6.12-11.74c2.84-1.81,5.96-2.72,9.36-2.72h20.84c-0.79-5.9-5.05-8.85-12.76-8.85
			h-22.45v-8.33h22.45c6.81,0,12.05,1.76,15.74,5.27C134.099,64.797,135.949,69.617,135.949,75.856 M127.699,93.977v-12.42h-21.1
			c-1.87,0-3.49,0.48-4.85,1.449c-1.53,1.08-2.29,2.66-2.29,4.761s0.76,3.69,2.29,4.76c1.36,0.97,2.98,1.45,4.85,1.45H127.699z"/>
	</g>
</g>
<g>
	<defs>
		<rect id="SVGID_5_" x="404.494" y="10.007" width="153.949" height="37.051"/>
	</defs>
	<clipPath id="SVGID_6_">
		<use xlink:href="#SVGID_5_"  overflow="visible"/>
	</clipPath>
	<g clip-path="url(#SVGID_6_)">
		<defs>
			<rect id="SVGID_7_" x="404.494" y="10.007" width="153.949" height="37.051"/>
		</defs>
		<clipPath id="SVGID_8_">
			<use xlink:href="#SVGID_7_"  overflow="visible"/>
		</clipPath>
		<path clip-path="url(#SVGID_8_)" fill="#9FA0A0" d="M558.443,44.867v2.02h-39.778c-3.602,0-6.621-2.18-6.621-4.76v-21.82h2.859
			v21.82c0,1.49,1.682,2.74,3.762,2.74H558.443z"/>
		<path clip-path="url(#SVGID_8_)" fill="#9FA0A0" d="M556.134,24.307v13.37c0,2.19-2.46,3.92-5.44,3.92h-23.96
			c-3.08,0-5.489-1.7-5.489-3.92v-13.37c0-2.22,2.409-3.96,5.489-3.96h10.551h2.81h10.6
			C553.674,20.347,556.134,22.127,556.134,24.307 M553.333,37.677v-2.46h-29.289v2.46c0,1.09,1.18,1.9,2.689,1.9h23.96
			C552.214,39.577,553.333,38.767,553.333,37.677 M553.333,28.837h-29.289v4.36h29.289V28.837z M553.333,26.817v-2.51
			c0-1.09-1.119-1.94-2.64-1.94h-23.96c-1.51,0-2.689,0.85-2.689,1.94v2.51H553.333z"/>
		<rect x="512.044" y="10.646" clip-path="url(#SVGID_8_)" fill="#9FA0A0" width="2.859" height="7.07"/>
		<path clip-path="url(#SVGID_8_)" fill="#9FA0A0" d="M507.544,14.287v2.75c0,2.26-2.58,4-5.561,4h-23.67l-1.18,25.77l-2.81-0.08
			l1.52-32.48c0.169-2.1,2.521-4,5.55-4h20.59C504.964,10.247,507.544,12.067,507.544,14.287 M504.733,17.037v-2.75
			c0-1.13-1.229-1.98-2.75-1.98h-20.59c-1.51,0-2.689,0.89-2.738,2.02l-0.232,4.69h23.561
			C503.505,19.017,504.733,18.127,504.733,17.037"/>
		<path clip-path="url(#SVGID_8_)" fill="#9FA0A0" d="M507.044,26.977v2.02h-11.889v4.97h5.83c2.527,0,4.549,1.45,4.549,3.27v6.3
			c0,1.82-2.021,3.27-4.549,3.27h-14.473c-2.527,0-4.54-1.45-4.54-3.27v-6.3c0-1.82,2.013-3.27,4.54-3.27h5.831v-4.97h-11.891v-2.02
			h11.891v-4.73h2.812v4.73H507.044z M502.723,43.537v-6.3c0-0.69-0.778-1.25-1.737-1.25h-14.473c-0.948,0-1.739,0.56-1.739,1.25
			v6.3c0,0.69,0.791,1.25,1.739,1.25h14.473C501.944,44.787,502.723,44.227,502.723,43.537"/>
		<path clip-path="url(#SVGID_8_)" fill="#9FA0A0" d="M472.753,28.067l1.352,1.73l-6.731,2.79v9.66c0,2.58-2.858,4.77-6.399,4.77
			h-2.971v-2.02h2.971c1.97,0,3.591-1.26,3.591-2.75v-8.53l-6.791,2.79l-1.339-1.74l8.13-3.31v-13.49h-7.521v-2.02h7.521v-5.78
			h2.809v5.78h4.88v2.02h-4.88v12.32L472.753,28.067z"/>
		<path clip-path="url(#SVGID_8_)" fill="#9FA0A0" d="M444.994,33.677l9.54,12.37l-2.52,1.01l-8.471-11.03
			c-3.09,4.56-6.62,8.08-10.379,11.03l-2.08-1.38c3.979-3.07,7.63-6.83,10.768-11.88l-8.92-11.67l2.471-0.97l7.861,10.22
			c2.24-4.08,4.15-8.97,5.659-14.87h-16.04l1.339-6.38l2.812,0.32l-0.841,4.04h18.171v2.02h-2.521
			C450.103,23.497,447.744,29.077,444.994,33.677"/>
		<path clip-path="url(#SVGID_8_)" fill="#9FA0A0" d="M431.364,32.507v2.02h-3.48c-0.949,3.31-3.361,5.94-6.949,7.92l8.859,2.67
			l-1.01,1.9l-10.721-3.24c-3.59,1.5-7.961,2.51-12.961,3.16l-0.559-2.02c3.711-0.49,7.13-1.22,9.99-2.15l-1.91-0.6
			c-2.521-0.77-3.76-2.14-3.76-3.92c0-0.81,0.229-1.5,0.619-2.26l0.731-1.46h-5.721v-2.02h6.778l1.631-3.19l2.641,0.65l-1.289,2.54
			H431.364z M424.915,34.527h-11.73l-1.061,2.14h0.05c-0.28,0.65-0.45,1.17-0.45,1.58c0,1.01,0.68,1.65,1.97,2.02l4.091,1.25
			C421.435,39.777,423.953,37.517,424.915,34.527"/>
		<polygon clip-path="url(#SVGID_8_)" fill="#9FA0A0" points="430.804,18.247 430.804,20.267 419.074,20.267 419.074,29.437 
			416.273,29.437 416.273,20.267 404.494,20.267 404.494,18.247 416.273,18.247 416.273,10.007 419.074,10.007 419.074,18.247 		"/>
		<polygon clip-path="url(#SVGID_8_)" fill="#9FA0A0" points="426.265,21.037 429.685,28.307 426.935,28.917 423.564,21.637 		"/>
		<polygon clip-path="url(#SVGID_8_)" fill="#9FA0A0" points="429.623,11.377 426.203,17.197 423.623,16.467 426.983,10.607 		"/>
		<polygon clip-path="url(#SVGID_8_)" fill="#9FA0A0" points="411.785,21.637 408.364,28.917 405.665,28.307 409.035,21.037 		"/>
		<polygon clip-path="url(#SVGID_8_)" fill="#9FA0A0" points="408.304,10.607 411.724,16.467 409.094,17.197 405.724,11.377 		"/>
	</g>
</g>
<polygon fill="none" stroke="#9FA0A0" stroke-width="0.75" points="416.272,29.437 416.272,20.267 404.494,20.267 404.494,18.247 
	416.272,18.247 416.272,10.007 419.074,10.007 419.074,18.247 430.803,18.247 430.803,20.267 419.074,20.267 419.074,29.437 "/>
<path fill="none" stroke="#9FA0A0" stroke-width="0.75" d="M415.544,29.967l-1.291,2.54h17.111v2.02h-3.48
	c-0.949,3.31-3.361,5.94-6.949,7.92l8.859,2.67l-1.01,1.9l-10.72-3.24c-3.591,1.5-7.96,2.51-12.96,3.16l-0.561-2.02
	c3.709-0.49,7.13-1.22,9.99-2.15l-1.911-0.6c-2.519-0.77-3.759-2.14-3.759-3.92c0-0.81,0.229-1.5,0.619-2.26l0.731-1.46h-5.721
	v-2.02h6.778l1.631-3.19L415.544,29.967z"/>
<polygon fill="none" stroke="#9FA0A0" stroke-width="0.75" points="405.665,28.307 409.034,21.037 411.784,21.637 408.364,28.917 
	"/>
<polygon fill="none" stroke="#9FA0A0" stroke-width="0.75" points="408.304,10.607 411.724,16.467 409.094,17.197 405.724,11.377 
	"/>
<path fill="none" stroke="#9FA0A0" stroke-width="0.75" d="M413.693,40.267l4.092,1.25c3.647-1.74,6.169-4,7.13-6.99h-11.732
	l-1.059,2.14h0.049c-0.279,0.65-0.45,1.17-0.45,1.58C411.723,39.257,412.403,39.897,413.693,40.267z"/>
<polygon fill="none" stroke="#9FA0A0" stroke-width="0.75" points="426.933,28.917 423.564,21.637 426.263,21.037 429.683,28.307 
	"/>
<polygon fill="none" stroke="#9FA0A0" stroke-width="0.75" points="429.623,11.377 426.203,17.197 423.623,16.467 426.983,10.607 
	"/>
<path fill="none" stroke="#9FA0A0" stroke-width="0.75" d="M432.933,22.127l2.473-0.97l7.857,10.22c2.24-4.08,4.15-8.97,5.66-14.87
	h-16.039l1.339-6.38l2.813,0.32l-0.841,4.04h18.17v2.02h-2.521c-1.739,6.99-4.1,12.57-6.85,17.17l9.541,12.37l-2.522,1.01
	l-8.469-11.03c-3.09,4.56-6.621,8.08-10.381,11.03l-2.08-1.38c3.981-3.07,7.631-6.83,10.771-11.88L432.933,22.127z"/>
<path fill="none" stroke="#9FA0A0" stroke-width="0.75" d="M458.003,44.997h2.971c1.97,0,3.591-1.26,3.591-2.75v-8.53l-6.791,2.79
	l-1.339-1.74l8.13-3.31v-13.49h-7.521v-2.02h7.521v-5.78h2.809v5.78h4.88v2.02h-4.88v12.32l5.38-2.22l1.352,1.73l-6.731,2.79v9.66
	c0,2.58-2.858,4.77-6.399,4.77h-2.971V44.997z"/>
<path fill="none" stroke="#9FA0A0" stroke-width="0.75" d="M474.323,46.727l1.521-32.48c0.169-2.1,2.521-4,5.55-4h20.59
	c2.981,0,5.561,1.82,5.561,4.04v2.75c0,2.26-2.579,4-5.561,4h-23.67l-1.18,25.77L474.323,46.727z"/>
<path fill="none" stroke="#9FA0A0" stroke-width="0.75" d="M478.423,19.017h23.563c1.518,0,2.75-0.89,2.75-1.98v-2.75
	c0-1.13-1.232-1.98-2.75-1.98h-20.592c-1.51,0-2.69,0.89-2.74,2.02L478.423,19.017z"/>
<path fill="none" stroke="#9FA0A0" stroke-width="0.75" d="M495.153,22.247v4.73h11.891v2.02h-11.891v4.97h5.83
	c2.529,0,4.551,1.45,4.551,3.271v6.3c0,1.82-2.021,3.27-4.551,3.27h-14.471c-2.529,0-4.54-1.45-4.54-3.27v-6.3
	c0-1.82,2.011-3.271,4.54-3.271h5.831v-4.97h-11.89v-2.02h11.89v-4.73H495.153z"/>
<path fill="none" stroke="#9FA0A0" stroke-width="0.75" d="M502.723,37.237c0-0.69-0.778-1.25-1.737-1.25h-14.473
	c-0.948,0-1.739,0.56-1.739,1.25v6.3c0,0.69,0.791,1.25,1.739,1.25h14.473c0.959,0,1.737-0.56,1.737-1.25V37.237z"/>
<rect x="512.044" y="10.646" fill="none" stroke="#9FA0A0" stroke-width="0.75" width="2.859" height="7.07"/>
<path fill="none" stroke="#9FA0A0" stroke-width="0.75" d="M558.443,46.887h-39.778c-3.602,0-6.621-2.18-6.621-4.76v-21.82h2.859
	v21.82c0,1.49,1.682,2.74,3.762,2.74h39.778V46.887z"/>
<path fill="none" stroke="#9FA0A0" stroke-width="0.75" d="M540.093,20.347h10.602c2.979,0,5.439,1.78,5.439,3.96v13.37
	c0,2.19-2.461,3.92-5.439,3.92h-23.959c-3.08,0-5.491-1.7-5.491-3.92v-13.37c0-2.22,2.411-3.96,5.491-3.96h10.549H540.093z"/>
<path fill="none" stroke="#9FA0A0" stroke-width="0.75" d="M524.044,26.817h29.289v-2.51c0-1.09-1.119-1.94-2.64-1.94h-23.96
	c-1.51,0-2.689,0.85-2.689,1.94V26.817z"/>
<rect x="524.044" y="28.837" fill="none" stroke="#9FA0A0" stroke-width="0.75" width="29.289" height="4.36"/>
<path fill="none" stroke="#9FA0A0" stroke-width="0.75" d="M550.693,39.577c1.521,0,2.642-0.81,2.642-1.9v-2.46h-29.291v2.46
	c0,1.09,1.179,1.9,2.689,1.9H550.693z"/>
<polyline fill="#7A62A9" points="537.253,20.389 537.253,17.079 518.573,17.079 518.573,15.059 526.653,15.059 526.653,10.249 
	529.454,10.249 529.454,15.059 547.864,15.059 547.864,10.249 550.663,10.249 550.663,15.059 558.806,15.059 558.806,17.079 
	540.064,17.079 540.064,20.389 "/>
<polyline fill="none" stroke="#7A62A9" points="537.253,20.389 537.253,17.079 518.573,17.079 518.573,15.059 526.653,15.059 
	526.653,10.249 529.454,10.249 529.454,15.059 547.864,15.059 547.864,10.249 550.663,10.249 550.663,15.059 558.806,15.059 
	558.806,17.079 540.064,17.079 540.064,20.389 "/>
<g>
</g>
<g>
</g>
<g>
</g>
<g>
</g>
<g>
</g>
<g>
</g>
</svg>
